# Made in Blockbench 4.11.2
mtllib servingTray.mtl

o servingTray
v 1.5 0.3125 0.75
v 1.5 0.3125 -0.75
v 1.5125000000000002 0.1875 0.7625
v 1.5125000000000002 0.1875 -0.7625
v -1.5 0.3125 0.75
v -1.5 0.3125 -0.75
v -1.5125000000000002 0.1875 0.7625
v -1.5125000000000002 0.1875 -0.7625
v 1.4875000000000003 0.30625 0.7375000000000002
v 1.4875000000000003 0.30625 -0.7375000000000002
v -1.4875000000000003 0.30625 0.7375000000000002
v -1.4875000000000003 0.30625 -0.7375000000000002
v 1.4562500000000003 0.19375 0.7062500000000002
v 1.4562500000000003 0.19375 -0.7062500000000002
v -1.4562500000000003 0.19375 0.7062500000000002
v -1.4562500000000003 0.19375 -0.7062500000000002
v 1.4781250000000004 0.23125 -0.7281250000000001
v 1.4781250000000004 0.23125 0.7281250000000001
v -1.4781250000000004 0.23125 0.7281250000000001
v -1.4781250000000004 0.23125 -0.7281250000000001
v -1.5125000000000002 0.25 0.7625
v -1.5125000000000002 0.25 -0.7625
v 1.5125000000000002 0.25 -0.7625
v 1.5125000000000002 0.25 0.7625
vt 0 1
vt 0 0.75
vt 1 0.75
vt 1 1
vt 0 1
vt 0 0.75
vt 1 0.75
vt 1 1
vt 0 -0.4249999999999998
vt 2.85 -0.4249999999999998
vt 2.85 1
vt 0 1
vt 1 0
vt 1 1
vt 0 1
vt 0 0
vt 0 1
vt 0 0.75
vt 1 0.75
vt 1 1
vt 0 1
vt 0 0.75
vt 1 0.75
vt 1 1
vt 2.925 0.06249999999999856
vt 0.07499999999999996 0.06249999999999856
vt 0 0.02499999999999858
vt 3 0.02499999999999858
vt 0.9375000000000029 0.9625
vt 0.9375000000000029 -0.4624999999999999
vt 1.0125000000000028 -0.5
vt 1.0125000000000028 1
vt 0.07499999999999996 0.9625
vt 2.925 0.9625
vt 3 1
vt 0 1
vt 0.07499999999999996 -0.4624999999999999
vt 0.07499999999999996 0.9625
vt 0 1
vt 0 -0.5
vt 0 0.31250000000000144
vt 0 0.28125000000000144
vt 2.9749999999999996 0.28125000000000144
vt 2.9749999999999996 0.31250000000000144
vt -0.5000000000000029 0.6875000000000014
vt -0.5000000000000029 0.6562500000000014
vt 0.974999999999997 0.6562500000000014
vt 0.974999999999997 0.6875000000000014
vt 0 1
vt 0 0.96875
vt 2.9749999999999996 0.96875
vt 2.9749999999999996 1
vt 0 0.6875000000000014
vt 0 0.6562500000000014
vt 1.475 0.6562500000000014
vt 1.475 0.6875000000000014
vt 0.974999999999997 0.6250000000000014
vt 0.974999999999997 0.6562500000000014
vt -0.5000000000000029 0.6562500000000014
vt -0.5000000000000029 0.6250000000000014
vt 2.9749999999999996 0.25000000000000144
vt 2.9749999999999996 0.28125000000000144
vt 0 0.28125000000000144
vt 0 0.25000000000000144
vt 1.475 0.6250000000000014
vt 1.475 0.6562500000000014
vt 0 0.6562500000000014
vt 0 0.6250000000000014
vt 2.9749999999999996 0.9375
vt 2.9749999999999996 0.96875
vt 0 0.96875
vt 0 0.9375
vt 1 0.5
vt 1 0.75
vt 0 0.75
vt 0 0.5
vt 1 0.5
vt 1 0.75
vt 0 0.75
vt 0 0.5
vt 1 0.5
vt 1 0.75
vt 0 0.75
vt 0 0.5
vt 1 0.5
vt 1 0.75
vt 0 0.75
vt 0 0.5
vn 0.9805806756909197 0.19611613513818668 0
vn -0.9805806756909197 0.19611613513818668 0
vn 0 1 0
vn 0 -1 0
vn 0 0.19611613513818338 0.9805806756909203
vn 0 0.19611613513818338 -0.9805806756909203
vn 0 0.8944271909999145 -0.44721359549996115
vn -0.44721359549996437 0.8944271909999127 0
vn 0 0.8944271909999145 0.44721359549996115
vn 0.44721359549996437 0.8944271909999127 0
vn 0 0.5038710255240857 -0.8637789008984337
vn -0.8637789008984327 0.5038710255240878 0
vn 0 0.5038710255240857 0.8637789008984337
vn 0.8637789008984327 0.5038710255240878 0
vn -0.992277876713668 0.1240347345892073 0
vn 0 0.12403473458920874 -0.9922778767136676
vn 0.992277876713668 0.1240347345892073 0
vn 0 0.12403473458920874 0.9922778767136676
vn -1 0 0
vn 0 0 -1
vn 1 0 0
vn 0 0 1
usemtl none
f 1/1/1 24/2/1 23/3/1 2/4/1
f 6/5/2 22/6/2 21/7/2 5/8/2
f 15/9/3 13/10/3 14/11/3 16/12/3
f 4/13/4 3/14/4 7/15/4 8/16/4
f 5/17/5 21/18/5 24/19/5 1/20/5
f 2/21/6 23/22/6 22/23/6 6/24/6
f 9/25/7 11/26/7 5/27/7 1/28/7
f 10/29/8 9/30/8 1/31/8 2/32/8
f 12/33/9 10/34/9 2/35/9 6/36/9
f 11/37/10 12/38/10 6/39/10 5/40/10
f 15/41/11 19/42/11 18/43/11 13/44/11
f 13/45/12 18/46/12 17/47/12 14/48/12
f 14/49/13 17/50/13 20/51/13 16/52/13
f 16/53/14 20/54/14 19/55/14 15/56/14
f 10/57/15 17/58/15 18/59/15 9/60/15
f 9/61/16 18/62/16 19/63/16 11/64/16
f 11/65/17 19/66/17 20/67/17 12/68/17
f 12/69/18 20/70/18 17/71/18 10/72/18
f 7/73/19 21/74/19 22/75/19 8/76/19
f 8/77/20 22/78/20 23/79/20 4/80/20
f 4/81/21 23/82/21 24/83/21 3/84/21
f 3/85/22 24/86/22 21/87/22 7/88/22